<?xml version="1.0" encoding="UTF-8"?>
<svg xmlns="http://www.w3.org/2000/svg" xmlns:xlink="http://www.w3.org/1999/xlink" viewBox="0 0 50 50" width="50px" height="50px">
<g id="surface376812">
<path style="fill-rule:nonzero;fill:rgb(0%,0%,0%);fill-opacity:1;stroke-width:10;stroke-linecap:butt;stroke-linejoin:round;stroke:rgb(80.000001%,80.000001%,80.000001%);stroke-opacity:1;stroke-miterlimit:10;" d="M 133.944205 15.988058 L 154.585461 71.036162 C 154.585461 71.050427 154.599726 71.093221 154.613991 71.121751 L 164.898957 98.553082 C 165.441021 100.008098 164.956016 101.634292 163.714973 102.547243 L 88.054143 157.538288 L 88.025613 157.581082 C 87.968554 157.623877 87.925759 157.652407 87.8687 157.695201 C 87.854435 157.695201 87.84017 157.709466 87.825905 157.709466 C 87.81164 157.709466 87.797375 157.723731 87.768846 157.737996 C 87.711786 157.78079 87.640462 157.823585 87.554873 157.86638 C 87.526343 157.880644 87.512078 157.894909 87.483548 157.909174 C 87.469283 157.923439 87.455019 157.923439 87.440754 157.923439 C 87.426489 157.937704 87.426489 157.937704 87.412224 157.937704 C 87.355165 157.951969 87.298105 157.980498 87.241046 158.009028 C 87.183986 158.023293 87.112662 158.051823 87.055602 158.080352 C 87.041338 158.080352 87.041338 158.080352 87.027073 158.080352 C 87.012808 158.094617 86.998543 158.094617 86.970013 158.094617 C 86.927219 158.108882 86.884424 158.123147 86.827365 158.137412 C 86.8131 158.151677 86.770305 158.151677 86.741776 158.165942 C 86.713246 158.165942 86.698981 158.165942 86.684716 158.165942 C 86.656186 158.165942 86.641921 158.165942 86.613392 158.180207 C 86.599127 158.180207 86.584862 158.180207 86.584862 158.180207 C 86.542067 158.194471 86.499273 158.194471 86.442213 158.194471 C 86.328094 158.223001 86.199711 158.223001 86.071327 158.237266 C 85.928678 158.237266 85.78603 158.223001 85.657646 158.223001 C 85.557792 158.208736 85.472203 158.194471 85.386614 158.180207 C 85.315289 158.165942 85.243965 158.165942 85.186905 158.137412 C 85.186905 158.151677 85.186905 158.151677 85.186905 158.137412 C 85.144111 158.137412 85.115581 158.123147 85.087051 158.123147 C 85.015727 158.094617 84.958668 158.080352 84.915873 158.066088 C 84.901608 158.051823 84.901608 158.051823 84.887343 158.051823 C 84.816019 158.023293 84.73043 157.994763 84.659106 157.966234 C 84.659106 157.951969 84.659106 157.951969 84.659106 157.951969 C 84.573516 157.937704 84.487927 157.894909 84.430868 157.86638 C 84.416603 157.852115 84.388073 157.83785 84.373808 157.823585 C 84.345279 157.823585 84.331014 157.80932 84.316749 157.795055 C 84.302484 157.795055 84.288219 157.78079 84.288219 157.78079 C 84.273954 157.78079 84.273954 157.766526 84.259689 157.766526 C 84.216895 157.737996 84.1741 157.709466 84.117041 157.680936 C 84.074246 157.652407 84.031452 157.623877 83.988657 157.595347 C 83.988657 157.581082 83.988657 157.581082 83.974392 157.581082 L 83.960127 157.552553 L 8.299297 102.547243 C 7.043989 101.634292 6.558984 100.008098 7.101049 98.553082 L 17.414544 71.036162 C 17.428809 71.021897 17.428809 71.007632 17.443074 71.007632 L 38.0558 15.988058 C 38.5836 14.618631 39.895967 13.73421 41.365248 13.762739 C 42.820264 13.805534 44.104102 14.76128 44.560577 16.144971 L 61.664147 68.796579 L 110.335858 68.796579 L 127.439428 16.144971 C 127.910168 14.70422 129.251066 13.748474 130.763141 13.762739 C 132.189627 13.777004 133.43067 14.661426 133.944205 15.988058 Z M 76.813431 137.653069 L 56.671446 75.686507 L 27.742305 75.686507 Z M 95.186574 137.653069 L 144.257701 75.686507 L 115.32856 75.686507 Z M 14.461718 98.524552 L 67.726714 137.267918 L 21.708268 79.152869 Z M 104.273291 137.267918 L 157.538288 98.524552 L 150.291738 79.152869 Z M 104.273291 137.267918 " transform="matrix(0.273837,0,0,0.273837,1.45,1.45)"/>
<path style=" stroke:none;fill-rule:nonzero;fill:rgb(92.54902%,94.117647%,94.509804%);fill-opacity:1;" d="M 37.257812 5.21875 C 36.84375 5.214844 36.476562 5.476562 36.347656 5.871094 L 31.664062 20.289062 L 18.335938 20.289062 L 13.652344 5.871094 C 13.527344 5.492188 13.175781 5.230469 12.777344 5.21875 C 12.375 5.210938 12.015625 5.453125 11.871094 5.828125 L 6.226562 20.894531 C 6.222656 20.894531 6.222656 20.898438 6.21875 20.902344 L 3.394531 28.4375 C 3.246094 28.835938 3.378906 29.28125 3.722656 29.53125 L 24.441406 44.59375 L 24.445312 44.601562 C 24.449219 44.601562 24.449219 44.601562 24.449219 44.605469 C 24.460938 44.613281 24.472656 44.621094 24.484375 44.628906 C 24.5 44.636719 24.511719 44.644531 24.523438 44.652344 C 24.527344 44.652344 24.527344 44.65625 24.53125 44.65625 C 24.53125 44.65625 24.535156 44.660156 24.539062 44.660156 C 24.542969 44.664062 24.546875 44.667969 24.554688 44.667969 C 24.558594 44.671875 24.566406 44.675781 24.570312 44.679688 C 24.585938 44.6875 24.609375 44.699219 24.632812 44.703125 C 24.632812 44.703125 24.632812 44.703125 24.632812 44.707031 C 24.652344 44.714844 24.675781 44.722656 24.695312 44.730469 C 24.699219 44.730469 24.699219 44.730469 24.703125 44.734375 C 24.714844 44.738281 24.730469 44.742188 24.75 44.75 C 24.757812 44.75 24.765625 44.753906 24.777344 44.753906 C 24.777344 44.757812 24.777344 44.757812 24.777344 44.753906 C 24.792969 44.761719 24.8125 44.761719 24.832031 44.765625 C 24.855469 44.769531 24.878906 44.773438 24.90625 44.777344 C 24.941406 44.777344 24.980469 44.78125 25.019531 44.78125 C 25.054688 44.777344 25.089844 44.777344 25.121094 44.769531 C 25.136719 44.769531 25.148438 44.769531 25.160156 44.765625 C 25.160156 44.765625 25.164062 44.765625 25.167969 44.765625 C 25.175781 44.761719 25.179688 44.761719 25.1875 44.761719 C 25.191406 44.761719 25.195312 44.761719 25.203125 44.761719 C 25.210938 44.757812 25.222656 44.757812 25.226562 44.753906 C 25.242188 44.75 25.253906 44.746094 25.265625 44.742188 C 25.273438 44.742188 25.277344 44.742188 25.28125 44.738281 C 25.285156 44.738281 25.285156 44.738281 25.289062 44.738281 C 25.304688 44.730469 25.324219 44.722656 25.339844 44.71875 C 25.355469 44.710938 25.371094 44.703125 25.386719 44.699219 C 25.390625 44.699219 25.390625 44.699219 25.394531 44.695312 C 25.398438 44.695312 25.402344 44.695312 25.40625 44.691406 C 25.414062 44.6875 25.417969 44.683594 25.425781 44.679688 C 25.449219 44.667969 25.46875 44.65625 25.484375 44.644531 C 25.492188 44.640625 25.496094 44.636719 25.5 44.636719 C 25.503906 44.636719 25.507812 44.632812 25.511719 44.632812 C 25.527344 44.621094 25.539062 44.613281 25.554688 44.601562 L 25.5625 44.589844 L 46.28125 29.53125 C 46.621094 29.28125 46.753906 28.835938 46.605469 28.4375 L 43.789062 20.925781 C 43.785156 20.917969 43.78125 20.90625 43.78125 20.902344 L 38.128906 5.828125 C 37.988281 5.464844 37.648438 5.222656 37.257812 5.21875 Z M 9.046875 22.175781 L 16.96875 22.175781 L 22.484375 39.144531 Z M 33.03125 22.175781 L 40.953125 22.175781 L 27.515625 39.144531 Z M 7.394531 23.125 L 19.996094 39.039062 L 5.410156 28.429688 Z M 42.605469 23.125 L 44.589844 28.429688 L 30.003906 39.039062 Z M 42.605469 23.125 "/>
</g>
</svg>
